# xmcd
#
# Track frame offsets:
# 150
# 17387
# 32030
# 47925
# 61121
# 78862
# 93726
# 106000
# 118824
# 130227
# 146021
# 160300
# 171312
# 182819
# 197026
# 211529
# 225524
# 239018
#
# Disc length: 3399 seconds
#
#
# Revision: 0
# Processed by: cddbd v1.5.2PL0 Copyright (c) Steve Scherf et al.
# Submitted via: FreeRIP 2.945 
#
DISCID=f00d4512
DTITLE=Time Life Superstars Of Country Good Ol' Songs - Disc 3 - Time Life Superstars Of Country Good Ol' Songs - Disc 3
DYEAR=1900
DGENRE=Country
TTITLE0=C W McCall - Convoy
TTITLE1=Eddie Rabbitt - Drivin' My Life Away
TTITLE2=Johnny Lee - Lookin' For Love
TTITLE3=Kenny Rogers And The First Edition - Ruby, Don't Take Your Love To Town
TTITLE4=Juice Newton - Angel Of The Morning
TTITLE5=Bellamy Brothers =Let Your Love Flow
TTITLE6=Merle Haggard - If We Make It Through December
TTITLE7=Michael Martin Murphey - What's Forever For
TTITLE8=Donna Fargo - The Happiest Girl In The Whole U S A
TTITLE9=Ray Stevens - Everythingh Is Beautiful
TTITLE10=Eddie Rabbitt - I Love A Rainy Night
TTITLE11=Conway Twitty - Hello Darlin'
TTITLE12=Sammi Smith - Help Me Make It Through The Night
TTITLE13=Bellamy Brothers =If I Said You Have A Beautiful Body (Would You Hold It Against Me)
TTITLE14=Judds - Mama He's Crazy
TTITLE15=Randy Travis - On The Other Hand
TTITLE16=Loretta Lynn - Coal Miner's Daughter
TTITLE17=Kenny Rogers - The Gambler
EXTD=
EXTT0=
EXTT1=
EXTT2=
EXTT3=
EXTT4=
EXTT5=
EXTT6=
EXTT7=
EXTT8=
EXTT9=
EXTT10=
EXTT11=
EXTT12=
EXTT13=
EXTT14=
EXTT15=
EXTT16=
EXTT17=
PLAYORDER=
